<svg width="262" height="61" viewBox="0 0 262 61" fill="none" xmlns="http://www.w3.org/2000/svg">
<g clip-path="url(#clip0_251_2)">
<path d="M80.76 33.48C83.0533 34.9467 84.2 37.0533 84.2 39.8C84.2 42.2267 83.3333 44.2 81.6 45.72C79.8667 47.24 77.72 48 75.16 48H63.4V20H74.36C76.8667 20 78.96 20.7467 80.64 22.24C82.3467 23.7067 83.2 25.6267 83.2 28C83.2 30.24 82.3867 32.0667 80.76 33.48ZM74.36 26H69.8V30.96H74.36C75.08 30.96 75.6667 30.7333 76.12 30.28C76.5733 29.8 76.8 29.2 76.8 28.48C76.8 27.76 76.5733 27.1733 76.12 26.72C75.6667 26.24 75.08 26 74.36 26ZM75.16 42C75.96 42 76.6 41.76 77.08 41.28C77.56 40.7733 77.8 40.12 77.8 39.32C77.8 38.52 77.56 37.88 77.08 37.4C76.6 36.8933 75.96 36.64 75.16 36.64H69.8V42H75.16ZM115.104 32.4V34.8C115.104 38.9867 113.798 42.3333 111.184 44.84C108.598 47.32 105.304 48.56 101.304 48.56C96.9577 48.56 93.3444 47.16 90.4644 44.36C87.611 41.56 86.1844 38.12 86.1844 34.04C86.1844 29.96 87.5977 26.5067 90.4244 23.68C93.2777 20.8533 96.7577 19.44 100.864 19.44C103.478 19.44 105.864 20.0267 108.024 21.2C110.211 22.3733 111.904 23.92 113.104 25.84L107.664 28.96C107.051 28 106.131 27.2133 104.904 26.6C103.704 25.9867 102.344 25.68 100.824 25.68C98.451 25.68 96.4777 26.4667 94.9044 28.04C93.3577 29.6133 92.5844 31.6267 92.5844 34.08C92.5844 36.5067 93.3844 38.4933 94.9844 40.04C96.5844 41.56 98.7177 42.32 101.384 42.32C105.091 42.32 107.478 40.88 108.544 38H101.064V32.4H115.104ZM132.073 48.56C127.886 48.56 124.406 47.1733 121.633 44.4C118.886 41.6 117.513 38.1333 117.513 34C117.513 29.8667 118.886 26.4133 121.633 23.64C124.406 20.84 127.886 19.44 132.073 19.44C134.579 19.44 136.899 20.0267 139.033 21.2C141.166 22.3467 142.846 23.92 144.073 25.92L138.553 29.12C137.939 28.0267 137.059 27.1867 135.913 26.6C134.766 25.9867 133.486 25.68 132.073 25.68C129.593 25.68 127.606 26.44 126.113 27.96C124.646 29.48 123.913 31.4933 123.913 34C123.913 36.5067 124.646 38.52 126.113 40.04C127.606 41.56 129.593 42.32 132.073 42.32C133.486 42.32 134.766 42.0133 135.913 41.4C137.086 40.7867 137.966 39.9467 138.553 38.88L144.073 42.08C142.873 44.08 141.206 45.6667 139.073 46.84C136.939 47.9867 134.606 48.56 132.073 48.56ZM152.132 47.44C151.385 48.1867 150.492 48.56 149.452 48.56C148.412 48.56 147.518 48.1867 146.772 47.44C146.025 46.6933 145.652 45.8 145.652 44.76C145.652 43.72 146.025 42.8267 146.772 42.08C147.518 41.3333 148.412 40.96 149.452 40.96C150.492 40.96 151.385 41.3333 152.132 42.08C152.878 42.8267 153.252 43.72 153.252 44.76C153.252 45.8 152.878 46.6933 152.132 47.44Z" fill="#3C3C3C"/>
<path d="M171.863 48L166.983 38.96H164.423V48H157.263V20H168.463C171.316 20 173.703 20.92 175.622 22.76C177.569 24.5733 178.543 26.88 178.543 29.68C178.543 31.36 178.116 32.9067 177.263 34.32C176.409 35.7067 175.249 36.8133 173.783 37.64L179.543 48H171.863ZM164.423 26.6V32.88H168.383C169.263 32.9067 169.983 32.6267 170.543 32.04C171.103 31.4533 171.383 30.6933 171.383 29.76C171.383 28.8267 171.103 28.0667 170.543 27.48C169.983 26.8933 169.263 26.6 168.383 26.6H164.423ZM189.227 41.28H200.067V48H182.067V20H199.867V26.68H189.227V30.56H198.867V37.16H189.227V41.28ZM218.913 20H226.033V48H220.513L210.633 33.92V48H203.473V20H209.033L218.913 34.08V20ZM249.666 20V26.92H242.746V48H235.586V26.92H228.666V20H249.666Z" fill="#E97000"/>
<path d="M16 28.0194C16 25.1464 17.2357 22.4121 19.3922 20.5136L25.6652 14.9912C29.5267 11.5917 35.3374 11.6767 39.0977 15.1878L44.8247 20.5351C46.8501 22.4263 48 25.0732 48 27.8443V39C48 44.5228 43.5228 49 38 49H26C20.4772 49 16 44.5228 16 39V28.0194Z" fill="#D9D9D9"/>
<path d="M26 34C26 31.7909 27.7909 30 30 30H34C36.2091 30 38 31.7909 38 34V49H26V34Z" fill="#B3B3B3"/>
<path d="M52 27L35.1235 13.4988C33.2974 12.0379 30.7026 12.0379 28.8765 13.4988L12 27" stroke="#E97000" stroke-width="5" stroke-linecap="round"/>
</g>
<defs>
<clipPath id="clip0_251_2">
<rect width="262" height="61" fill="white"/>
</clipPath>
</defs>
</svg>
